<svg id="visual" viewBox="0 0 960 300" width="960" height="300" xmlns="http://www.w3.org/2000/svg" xmlns:xlink="http://www.w3.org/1999/xlink" version="1.1"><path d="M0 101L40 111.7C80 122.3 160 143.7 240 144C320 144.3 400 123.7 480 114.8C560 106 640 109 720 115.3C800 121.7 880 131.3 920 136.2L960 141L960 301L920 301C880 301 800 301 720 301C640 301 560 301 480 301C400 301 320 301 240 301C160 301 80 301 40 301L0 301Z" fill="#fdba72"></path><path d="M0 179L40 172.5C80 166 160 153 240 164.8C320 176.7 400 213.3 480 214.5C560 215.7 640 181.3 720 168C800 154.7 880 162.3 920 166.2L960 170L960 301L920 301C880 301 800 301 720 301C640 301 560 301 480 301C400 301 320 301 240 301C160 301 80 301 40 301L0 301Z" fill="#ff8400"></path></svg>
